<?xml version="1.0" encoding="utf-8"?>
<!-- Generator: Adobe Illustrator 16.0.0, SVG Export Plug-In . SVG Version: 6.00 Build 0)  -->
<!DOCTYPE svg PUBLIC "-//W3C//DTD SVG 1.1//EN" "http://www.w3.org/Graphics/SVG/1.1/DTD/svg11.dtd">
<svg version="1.1" id="레이어_1" xmlns="http://www.w3.org/2000/svg" xmlns:xlink="http://www.w3.org/1999/xlink" x="0px"
	 y="0px" width="18px" height="18px" viewBox="0 0 18 18" enable-background="new 0 0 18 18" xml:space="preserve">
<path fill="#FFFFFF" d="M11.108,8.727c1.489-0.768,2.511-2.32,2.511-4.108C13.619,2.072,11.547,0,9,0S4.381,2.072,4.381,4.619
	c0,1.788,1.021,3.341,2.511,4.108c-3.472,0.701-6.036,3.088-6.036,5.919v1.591C0.856,17.226,1.793,18,2.988,18h12.023
	c1.195,0,2.132-0.774,2.132-1.763v-1.591C17.144,11.815,14.58,9.428,11.108,8.727z M5.949,4.619c0-1.682,1.369-3.051,3.051-3.051
	c1.683,0,3.051,1.369,3.051,3.051c0,1.683-1.368,3.051-3.051,3.051C7.318,7.67,5.949,6.301,5.949,4.619z M15.576,16.225
	c-0.034,0.064-0.237,0.208-0.564,0.208H2.988c-0.327,0-0.53-0.144-0.564-0.208v-1.578c0-2.515,2.95-4.561,6.576-4.561
	s6.576,2.046,6.576,4.561V16.225z"/>
</svg>
