<?xml version="1.0" encoding="utf-8"?>
<!-- Generator: Adobe Illustrator 16.0.0, SVG Export Plug-In . SVG Version: 6.00 Build 0)  -->
<!DOCTYPE svg PUBLIC "-//W3C//DTD SVG 1.1//EN" "http://www.w3.org/Graphics/SVG/1.1/DTD/svg11.dtd">
<svg version="1.1" id="레이어_1" xmlns="http://www.w3.org/2000/svg" xmlns:xlink="http://www.w3.org/1999/xlink" x="0px"
	 y="0px" width="319px" height="58px" viewBox="0 0 319 58" enable-background="new 0 0 319 58" xml:space="preserve">
<g>
	<g>
		<path fill="#2B62AD" d="M15.685,11.495c0,0,1.513-2.166,3.69-2.898L18.527,9.99C18.527,9.99,16.582,10.626,15.685,11.495"/>
		<path fill="#2B62AD" d="M20.033,8.386c0,0,1.02-0.24,1.378-0.28l-0.86,1.459c0,0-1.083,0.2-1.375,0.276L20.033,8.386z"/>
		<path fill="#2B62AD" d="M22.293,8.028c0,0,0.7-0.053,1.133-0.015l-0.9,1.527c0,0-0.859-0.014-1.169,0L22.293,8.028z"/>
		<path fill="#2B62AD" d="M20.563,10.733c0,0,0.883-0.028,1.208-0.016l-0.726,1.23c0,0-0.92-0.064-1.235,0L20.563,10.733z"/>
		<path fill="#2B62AD" d="M16.686,11.586c0,0,0.758-0.296,1.096-0.39l-0.594,1.008c0,0-0.76,0.15-1.027,0.222L16.686,11.586z"/>
		<path fill="#2B62AD" d="M14.918,14.686l0.722-1.225c0,0,0.731-0.212,1.057-0.275l-0.976,1.606c0,0-0.579,0.18-0.913,0.246
			C14.476,15.104,14.918,14.686,14.918,14.686"/>
		<path fill="#2B62AD" d="M17.265,13.08c0,0,0.887-0.124,1.298-0.146l-0.901,1.529c0,0-1.016,0.129-1.326,0.193L17.265,13.08z"/>
		<path fill="#2B62AD" d="M19.277,12.902c0,0,1.128-0.038,1.273,0.031l-0.878,1.448c0,0-1.073,0.011-1.327,0.027L19.277,12.902z"/>
		<path fill="#2B62AD" d="M22.476,10.755c0,0,1.364,0.156,1.479,0.175l-0.735,1.228c0,0-1.352-0.176-1.499-0.178L22.476,10.755z"/>
		<path fill="#2B62AD" d="M23.994,12.297l0.73-1.242c0,0,1.374,0.351,1.638,0.429l-0.715,1.224
			C25.647,12.707,24.06,12.287,23.994,12.297"/>
		<path fill="#2B62AD" d="M22.639,14.697l0.814-1.382c0,0,1.358,0.256,1.642,0.419l-0.798,1.353
			C24.297,15.087,22.897,14.744,22.639,14.697"/>
		<path fill="#2B62AD" d="M28.333,16.743l0.856-1.441c0,0,1.559,0.796,1.681,0.863l-0.879,1.51
			C29.991,17.675,28.56,16.765,28.333,16.743"/>
		<path fill="#2B62AD" d="M31.327,10.08c-0.272-0.139-1.684-0.653-1.684-0.653l-0.988,1.585c0.532,0.198,1.097,0.425,1.667,0.675
			L31.327,10.08z"/>
		<path fill="#2B62AD" d="M27.048,10.424l0.914-1.55c0,0-1.397-0.387-1.652-0.443l-0.878,1.531c0,0,0.149,0.039,0.41,0.114
			C26.26,10.193,26.875,10.368,27.048,10.424"/>
		<path fill="#2B62AD" d="M34.866,12.106c-0.109-0.102-1.531-0.955-1.531-0.955l-0.899,1.58c0.536,0.305,1.043,0.629,1.497,0.973
			L34.866,12.106z"/>
		<path fill="#2B62AD" d="M36.291,16.488l-1.471-1.045l-0.845,1.444c0.485,0.341,0.96,0.701,1.415,1.076L36.291,16.488z"/>
		<path fill="#2B62AD" d="M30.168,12.969c-0.378-0.186-1.601-0.696-1.834-0.794l-0.728,1.163c0.317,0.073,1.849,0.851,1.849,0.851
			L30.168,12.969z"/>
		<path fill="#2B62AD" d="M27.74,46.504c0,0-1.512,2.167-3.69,2.9l0.849-1.396C24.898,48.009,26.843,47.374,27.74,46.504"/>
		<path fill="#2B62AD" d="M23.393,49.613c0,0-1.02,0.241-1.378,0.282l0.86-1.46c0,0,1.082-0.199,1.375-0.275L23.393,49.613z"/>
		<path fill="#2B62AD" d="M21.132,49.972c0,0-0.7,0.053-1.134,0.014l0.899-1.526c0,0,0.86,0.014,1.17,0L21.132,49.972z"/>
		<path fill="#2B62AD" d="M22.862,47.267c0,0-0.883,0.027-1.209,0.016l0.726-1.23c0,0,0.92,0.065,1.234,0L22.862,47.267z"/>
		<path fill="#2B62AD" d="M26.739,46.414c0,0-0.757,0.297-1.095,0.39l0.594-1.007c0,0,0.76-0.15,1.027-0.222L26.739,46.414z"/>
		<path fill="#2B62AD" d="M28.506,43.314l-0.723,1.225c0,0-0.73,0.212-1.056,0.275l0.976-1.606c0,0,0.579-0.18,0.912-0.246
			C28.949,42.896,28.506,43.314,28.506,43.314"/>
		<path fill="#2B62AD" d="M26.161,44.92c0,0-0.887,0.125-1.299,0.146l0.902-1.529c0,0,1.016-0.129,1.327-0.194L26.161,44.92z"/>
		<path fill="#2B62AD" d="M24.148,45.098c0,0-1.129,0.037-1.273-0.031l0.878-1.448c0,0,1.073-0.012,1.326-0.026L24.148,45.098z"/>
		<path fill="#2B62AD" d="M20.95,47.246c0,0-1.364-0.157-1.48-0.176l0.735-1.228c0,0,1.352,0.176,1.5,0.179L20.95,47.246z"/>
		<path fill="#2B62AD" d="M19.432,45.703l-0.731,1.242c0,0-1.374-0.35-1.638-0.43l0.715-1.223
			C17.777,45.293,19.365,45.714,19.432,45.703"/>
		<path fill="#2B62AD" d="M20.786,43.304l-0.814,1.38c0,0-1.357-0.256-1.642-0.417l0.797-1.355
			C19.127,42.911,20.528,43.257,20.786,43.304"/>
		<path fill="#2B62AD" d="M15.093,41.257l-0.856,1.441c0,0-1.559-0.796-1.681-0.864l0.879-1.509
			C13.435,40.325,14.866,41.236,15.093,41.257"/>
		<path fill="#2B62AD" d="M12.098,47.919c0.271,0.141,1.683,0.654,1.683,0.654l0.988-1.584c-0.532-0.199-1.097-0.425-1.667-0.675
			L12.098,47.919z"/>
		<path fill="#2B62AD" d="M16.377,47.576l-0.914,1.55c0,0,1.397,0.388,1.653,0.444l0.878-1.532c0,0-0.148-0.04-0.409-0.114
			C17.165,47.806,16.551,47.632,16.377,47.576"/>
		<path fill="#2B62AD" d="M8.559,45.894c0.109,0.102,1.531,0.956,1.531,0.956l0.899-1.581c-0.536-0.304-1.043-0.629-1.498-0.974
			L8.559,45.894z"/>
		<path fill="#2B62AD" d="M7.134,41.512l1.472,1.044l0.846-1.443c-0.485-0.341-0.961-0.701-1.415-1.076L7.134,41.512z"/>
		<path fill="#2B62AD" d="M13.257,45.03c0.379,0.187,1.601,0.697,1.834,0.795l0.729-1.162c-0.317-0.074-1.849-0.851-1.849-0.851
			L13.257,45.03z"/>
		<path fill="#2B62AD" d="M32.272,36.674c-0.483-6.557-8.45-10.84-8.45-10.84c-10.864-6.431-8.761-13.089-8.761-13.089l-3.137,6.018
			c-0.613,1.175-0.569,2.049-0.569,2.049c0.041,2.538,1.202,4.686,2.556,6.337c0.483,0.566,2.012,2.164,5.536,4.416
			c0.002,0.002,0.004,0.003,0.007,0.005c3.532,2.103,5.616,4.396,5.616,4.396c4.84,4.871,3.501,9.229,3.501,9.229l3.166-6.073
			C32.535,37.592,32.272,36.674,32.272,36.674"/>
	</g>
	<g>
		<path fill="#EEB85B" d="M118.395,19.374c-2.606-1.088-8.386-2.867-13.114,0.173c0,0-3.858,2.881-2.5,8.549
			c0.068,0.258,0.254,0.88,0.577,1.431c0.751,1.165,2.762,3.354,7.623,4.356c0,0,2.424,0.649,3.141-1.604
			c0,0,0.648-2.253-1.809-3.14c0,0-4.779-0.684-4.813-3.038c0,0-0.649-3.346,3.686-3.346c0,0,2.969-0.204,5.938,1.468
			c0,0,0.939,0.528,1.952,0.477c-0.236-1.488-0.811-5.209-0.811-5.209L118.395,19.374z"/>
		<path fill="#2F90A5" d="M115.294,22.436c0,0-0.717-2.355,1.229-3.071c0,0,2.458-1.126,3.584,2.15l7.646,20.991
			c0,0,0.888,2.354-1.501,3.174c0,0-2.287,0.82-3.414-1.979L115.294,22.436z"/>
		<path fill="#E29AA6" d="M131.175,22.479c0,0-0.717-2.355,1.229-3.072c0,0,2.457-1.126,3.584,2.15l7.646,20.992
			c0,0,0.887,2.354-1.502,3.174c0,0-2.287,0.819-3.413-1.979L131.175,22.479z"/>
		<path fill="#38AE96" d="M135.61,22.479c0,0,0.717-2.355-1.229-3.072c0,0-2.458-1.126-3.583,2.15l-7.646,20.992
			c0,0-0.888,2.354,1.502,3.174c0,0,2.287,0.819,3.413-1.979L135.61,22.479z"/>
		<path fill="#54466D" d="M151.512,22.479c0,0,0.717-2.355-1.229-3.072c0,0-2.457-1.126-3.583,2.15l-7.646,20.992
			c0,0-0.888,2.354,1.502,3.174c0,0,2.286,0.819,3.413-1.979L151.512,22.479z"/>
		<path fill="#EEB85B" d="M111.831,29.052c0,0,2.447,0.454,3.468,0.817s-5.429,0.62-5.429,0.62L111.831,29.052z"/>
		<path fill="#D75D76" d="M101.996,39.199c0,0,1.254-2.176,3.814-0.539c0,0,3.967,2.407,7.091,2.228
			c3.123-0.179,4.581-1.069,4.632-3.402c0,0,0.214-2.079,2.408-2.162c0,0,2.784,0.016,2.467,2.982c0,0,0.041,4.707-5.438,6.858
			c0,0-5.478,2.176-12.083-1.435C104.888,43.729,100.382,41.605,101.996,39.199"/>
		<path fill="#EEB85B" d="M109.316,31.441c0,0,0.217-2.621,3.296-2.18c0,0,5.587,0.567,8.736,4.511c0,0,1.484,1.945,1.126,4.172
			c0,0-0.154,2.252-2.714,2.177c0,0-2.099-0.078-2.227-2.484c0,0,0.154-1.663-2.125-2.432c0,0-3.283-1.092-4.13-1.268
			C111.279,33.938,109.24,33.516,109.316,31.441"/>
	</g>
	<g>
		<path fill="#333333" d="M63.257,32.044c-5.663,0.943-11.769,1.062-16.695,1.062l-0.442-3.717c1.416,0,2.979,0,4.601-0.029v-4.513
			h4.69v4.395c2.566-0.088,5.132-0.265,7.551-0.56L63.257,32.044z M56.945,27.324c0.383-1.947,0.472-3.569,0.531-5.015h-9.763
			v-3.745h14.453v1.946c0,1.917,0,4.307-0.59,7.197L56.945,27.324z M69.274,39.477c0,3.363-3.834,5.368-9.792,5.368
			c-5.988,0-9.822-2.005-9.822-5.368c0-3.333,3.834-5.339,9.822-5.339C65.44,34.138,69.274,36.144,69.274,39.477z M64.378,39.477
			c0-1.209-1.652-1.711-4.896-1.711c-3.274,0-4.926,0.502-4.926,1.711c0,1.238,1.651,1.711,4.926,1.711
			C62.727,41.188,64.378,40.715,64.378,39.477z M72.018,23.578v3.863h-2.979v6.401H64.26V17.178h4.778v6.4H72.018z"/>
		<path fill="#333333" d="M98.863,35.938H88.599v8.966H83.82v-8.966H73.792V32.19h25.072V35.938z M74.853,27.295
			c5.782-0.649,8.053-2.979,8.554-5.133h-7.462v-3.717h20.676v3.717h-7.344c0.501,2.153,2.772,4.483,8.554,5.133l-1.711,3.716
			c-5.014-0.619-8.17-2.507-9.792-5.103c-1.623,2.596-4.749,4.483-9.764,5.103L74.853,27.295z"/>
	</g>
	<g>
		<path fill="#333333" d="M177.757,38.002v3.805h-25.102v-3.805h4.809v-8.495h4.69v8.495h2.123v-8.495h4.691v8.495H177.757z
			 M170.116,34.403c0.826-4.749,0.916-8.406,0.945-11.356h-16.047v-3.746h20.825v2.507c0,3.274,0,7.227-0.943,13.067L170.116,34.403
			z"/>
		<path fill="#333333" d="M199.233,33.577v2.064h2.654v9.232h-4.777v-5.545h-14.543v-3.688h2.744v-2.064h-5.516v-3.716h25.041v3.716
			H199.233z M182.155,23.194c0-3.392,4.072-5.485,10.176-5.485c6.105,0,10.178,2.094,10.178,5.485c0,3.422-4.072,5.516-10.178,5.516
			C186.228,28.71,182.155,26.616,182.155,23.194z M187.081,23.194c0,1.328,1.83,1.888,5.25,1.888c3.422,0,5.25-0.56,5.25-1.888
			c0-1.298-1.828-1.888-5.25-1.888C188.911,21.307,187.081,21.896,187.081,23.194z M194.483,33.577h-4.424v2.064h4.424V33.577z"/>
		<path fill="#333333" d="M218.087,24.139c0,4.365,1.621,9.114,6.547,11.149l-2.566,3.717c-3.098-1.269-5.131-3.688-6.342-6.696
			c-1.18,3.333-3.215,6.018-6.43,7.433l-2.684-3.775c4.984-2.152,6.635-7.227,6.635-11.827v-0.501h-5.426v-3.894h15.574v3.894
			h-5.309V24.139z M230.091,17.207v27.638h-4.777V17.207H230.091z"/>
		<path fill="#333333" d="M258.321,40.715v3.746h-21.059v-8.317h3.686v-3.422c-2.24,0.118-4.424,0.147-6.371,0.147l-0.559-3.716
			c5.014-0.03,11.68-0.089,17.432-0.855l0.324,3.362c-2.006,0.354-4.07,0.59-6.105,0.767v5.103h-3.688v3.186H258.321z
			 M235.905,23.018c0-2.92,2.891-4.984,6.932-4.984c4.07,0,6.961,2.064,6.961,4.984c0,2.979-2.891,5.015-6.961,5.015
			C238.796,28.032,235.905,25.997,235.905,23.018z M240.417,23.018c0,1.092,1.004,1.563,2.42,1.563c1.475,0,2.447-0.472,2.447-1.563
			c0-1.062-0.973-1.533-2.447-1.533C241.421,21.484,240.417,21.956,240.417,23.018z M252.954,33.105V17.178h4.777V38.12h-4.777v-1.8
			h-4.955v-3.215H252.954z"/>
		<path fill="#333333" d="M272.101,33.872c-1.945-0.943-3.273-2.418-4.129-4.276c-0.945,2.153-2.479,3.923-4.75,4.955l-2.596-3.629
			c3.924-1.888,5.016-5.368,5.016-8.642v-3.273h4.631v3.273c0,3.156,0.943,6.224,4.395,7.994L272.101,33.872z M285.579,40.715v3.746
			h-19.584v-8.937h4.779v5.19H285.579z M274.874,26.94h-2.744v-3.805h2.744v-5.517h4.424v19.409h-4.424V26.94z M284.962,37.884
			h-4.514V17.207h4.514V37.884z"/>
		<path fill="#333333" d="M294.345,35.081c3.186-0.029,6.047-0.176,9.203-0.648l0.383,3.775c-4.012,0.59-7.668,0.649-12.006,0.649
			h-2.328V19.36h12.83v3.805h-8.082v3.864h7.287v3.687h-7.287V35.081z M311.866,17.147v27.786h-4.779V30.332h-4.217v-3.805h4.217
			v-9.38H311.866z"/>
	</g>
</g>
</svg>
