<?xml version="1.0" encoding="utf-8"?>
<!-- Generator: Adobe Illustrator 16.0.0, SVG Export Plug-In . SVG Version: 6.00 Build 0)  -->
<!DOCTYPE svg PUBLIC "-//W3C//DTD SVG 1.1//EN" "http://www.w3.org/Graphics/SVG/1.1/DTD/svg11.dtd">
<svg version="1.1" xmlns="http://www.w3.org/2000/svg" xmlns:xlink="http://www.w3.org/1999/xlink" x="0px" y="0px" width="30px"
	 height="30px" viewBox="0 0 30 30" enable-background="new 0 0 30 30" xml:space="preserve">
<g id="레이어_1">
	<g>
		<path fill="#47B7B8" d="M15,1.429c-5.252,0-9.5,4.248-9.5,9.5c0,7.125,9.5,17.643,9.5,17.643s9.5-10.518,9.5-17.643
			C24.5,5.676,20.252,1.429,15,1.429z M8.214,10.929c0-3.746,3.04-6.786,6.786-6.786c3.745,0,6.786,3.04,6.786,6.786
			c0,3.908-3.909,9.757-6.786,13.408C12.177,20.714,8.214,14.796,8.214,10.929z"/>
		<circle fill="#47B7B8" cx="15" cy="10.928" r="3.393"/>
	</g>
</g>
<g id="레이어_2" display="none">
	<g display="inline">
		<path fill="#47B7B8" d="M24.954,28.071c-13.07,0-23.703-10.633-23.703-23.703c0-1.239,0.843-2.301,2.05-2.581l4.979-1.149
			c1.288-0.288,2.523,0.378,3.027,1.523l2.303,5.373c0.462,1.081,0.147,2.353-0.767,3.095l-1.953,1.601
			c1.458,2.59,3.607,4.74,6.197,6.198l1.604-1.962c0.734-0.895,2.026-1.213,3.091-0.758l5.361,2.297
			c1.182,0.514,1.825,1.789,1.539,3.035l-1.148,4.977C27.257,27.226,26.195,28.071,24.954,28.071z M4.253,4.646
			c0.148,11.195,9.226,20.275,20.421,20.424l1.021-4.422l-4.849-2.077l-2.948,3.604l-1.059-0.5c-4.029-1.9-7.294-5.166-9.195-9.196
			l-0.499-1.058l3.602-2.951L8.668,3.619L4.253,4.646z"/>
	</g>
</g>
<g id="레이어_7" display="none">
	<path display="inline" fill="#47B7B8" d="M23.591,1.5H6.408c-1.35,0-2.441,1.104-2.441,2.454L3.954,19.822
		c0,0.848,0.43,1.598,1.08,2.037L15,28.5l9.952-6.641c0.652-0.439,1.081-1.189,1.081-2.037l0.013-15.868
		C26.046,2.604,24.94,1.5,23.591,1.5z M15,25.554l-8.592-5.72V3.954h17.183v15.868L15,25.554z M12.533,16.447L9.367,13.27L7.636,15
		l4.909,4.909l9.818-9.818l-1.742-1.742L12.533,16.447z"/>
</g>
<g id="레이어_3" display="none">
	<path display="inline" fill="#47B7B8" d="M12.638,16.35c0,0.932-0.756,1.688-1.688,1.688c-0.932,0-1.688-0.756-1.688-1.688
		c0-0.931,0.756-1.688,1.688-1.688C11.881,14.662,12.638,15.419,12.638,16.35z M19.05,14.662c-0.931,0-1.688,0.757-1.688,1.688
		c0,0.932,0.757,1.688,1.688,1.688s1.688-0.756,1.688-1.688C20.737,15.419,19.98,14.662,19.05,14.662z M28.5,15
		c0,7.451-6.049,13.5-13.5,13.5C7.548,28.5,1.5,22.451,1.5,15C1.5,7.548,7.548,1.5,15,1.5C22.451,1.5,28.5,7.548,28.5,15z
		 M13.191,4.362C15.081,7.494,18.51,9.6,22.425,9.6c0.621,0,1.229-0.067,1.809-0.162C22.344,6.306,18.916,4.2,15,4.2
		C14.379,4.2,13.771,4.267,13.191,4.362z M4.767,11.586c2.308-1.311,4.091-3.444,4.941-5.996C7.4,6.9,5.617,9.033,4.767,11.586z
		 M25.8,15c0-1.052-0.162-2.064-0.445-3.024c-0.944,0.203-1.917,0.324-2.93,0.324c-4.226,0-7.992-1.943-10.476-4.981
		c-1.418,3.456-4.239,6.17-7.749,7.492c0.013,0.055,0,0.122,0,0.189c0,5.954,4.846,10.8,10.8,10.8C20.954,25.8,25.8,20.954,25.8,15z
		"/>
</g>
<g id="레이어_4" display="none">
	<path display="inline" fill="#47B7B8" d="M24.818,3.955h-1.228V1.5h-2.454v2.455H8.864V1.5H6.409v2.455H5.182
		c-1.35,0-2.454,1.104-2.454,2.455v19.637c0,1.349,1.104,2.454,2.454,2.454h19.637c1.35,0,2.454-1.105,2.454-2.454V6.409
		C27.272,5.059,26.168,3.955,24.818,3.955z M24.818,26.046H5.182v-13.5h19.637V26.046z M24.818,10.091H5.182V6.409h19.637V10.091z"
		/>
</g>
<g id="레이어_5" display="none">
	<path display="inline" fill="#47B7B8" d="M26.046,3.954H3.955C2.592,3.954,1.5,5.047,1.5,6.409v14.728
		c0,1.35,1.092,2.454,2.455,2.454h6.136v2.455h9.818v-2.455h6.137c1.349,0,2.454-1.104,2.454-2.454V6.409
		C28.5,5.047,27.395,3.954,26.046,3.954z M26.046,21.137H3.955V6.409h22.091V21.137z M19.909,12.546V15h-9.818v-2.454H19.909z"/>
</g>
<g id="레이어_6" display="none">
	<path display="inline" fill="#47B7B8" d="M0.417,15c0,6.903,5.596,12.5,12.5,12.5c3.459,0,6.569-1.402,8.832-3.668l-1.972-1.972
		c-1.75,1.765-4.181,2.862-6.86,2.862c-5.375,0-9.723-4.348-9.723-9.723c0-5.375,4.348-9.722,9.723-9.722S22.639,9.625,22.639,15
		h-4.167l5.611,5.597l0.097-0.193L29.583,15h-4.167c0-6.903-5.597-12.5-12.499-12.5C6.013,2.5,0.417,8.097,0.417,15z M10.585,9.444
		v6.944l5.903,3.499l1.067-1.776l-4.888-2.903V9.444H10.585z"/>
</g>
<g id="레이어_8" display="none">
	<path display="inline" fill="#47B7B8" d="M13.65,19.05h2.7v2.7h-2.7V19.05z M13.65,8.25h2.7v8.1h-2.7V8.25z M14.987,1.5
		C7.535,1.5,1.5,7.548,1.5,15c0,7.451,6.035,13.5,13.487,13.5C22.451,28.5,28.5,22.451,28.5,15C28.5,7.548,22.451,1.5,14.987,1.5z
		 M15,25.8C9.033,25.8,4.2,20.967,4.2,15S9.033,4.2,15,4.2S25.8,9.033,25.8,15S20.967,25.8,15,25.8z"/>
</g>
<g id="레이어_9" display="none">
	<path display="inline" fill="none" d="M2,9h24v24H2V9z"/>
	<path display="inline" fill="#47B7B8" d="M16.35,8.25h-2.7v5.4h-5.4v2.699h5.4v5.4h2.7v-5.4h5.4V13.65h-5.4V8.25z M15,1.5
		C7.548,1.5,1.5,7.548,1.5,15c0,7.451,6.048,13.5,13.5,13.5c7.451,0,13.5-6.049,13.5-13.5C28.5,7.548,22.451,1.5,15,1.5z M15,25.8
		C9.046,25.8,4.2,20.954,4.2,15C4.2,9.046,9.046,4.2,15,4.2c5.954,0,10.8,4.846,10.8,10.8C25.8,20.954,20.954,25.8,15,25.8z"/>
</g>
<g id="레이어_10" display="none">
	<path display="inline" fill="#47B7B8" d="M13.5,7.5h9v3h-9V7.5z M13.5,13.5h9v3h-9V13.5z M13.5,19.5h9v3h-9V19.5z M7.5,7.5h3v3h-3
		V7.5z M7.5,13.5h3v3h-3V13.5z M7.5,19.5h3v3h-3V19.5z M27.149,1.5H2.85C2.1,1.5,1.5,2.1,1.5,2.85v24.3
		c0,0.601,0.6,1.351,1.35,1.351h24.3c0.601,0,1.351-0.75,1.351-1.351V2.85C28.5,2.1,27.75,1.5,27.149,1.5z M25.5,25.5h-21v-21h21
		V25.5z"/>
</g>
</svg>
