<?xml version="1.0" encoding="utf-8"?>
<!-- Generator: Adobe Illustrator 16.0.0, SVG Export Plug-In . SVG Version: 6.00 Build 0)  -->
<!DOCTYPE svg PUBLIC "-//W3C//DTD SVG 1.1//EN" "http://www.w3.org/Graphics/SVG/1.1/DTD/svg11.dtd">
<svg version="1.1" xmlns="http://www.w3.org/2000/svg" xmlns:xlink="http://www.w3.org/1999/xlink" x="0px" y="0px" width="76px"
	 height="76px" viewBox="0 0 76 76" enable-background="new 0 0 76 76" xml:space="preserve">
<g id="레이어_1">
	<path fill="#2977C7" d="M76,66c0,5.522-4.477,10-10,10H10C4.478,76,0,71.522,0,66V10C0,4.477,4.478,0,10,0h56
		c5.523,0,10,4.477,10,10V66z"/>
	<g>
		<path fill="#FFFFFF" d="M47.375,45H45.5c-1.585,0-2.875-1.29-2.875-2.875V41.25h-9.25v0.875c0,1.585-1.29,2.875-2.875,2.875
			h-1.875c-1.585,0-2.875-1.29-2.875-2.875V41.07c-1.094-0.407-1.875-1.462-1.875-2.695v-8.434C22.803,29.698,22,28.738,22,27.594
			v-4.688c0-1.145,0.803-2.104,1.875-2.347v-1.872C23.875,14.954,30.981,13,38,13c7.02,0,14.125,1.954,14.125,5.688v1.872
			C53.197,20.802,54,21.762,54,22.906v4.688c0,1.145-0.803,2.104-1.875,2.347v8.809c0,1.056-0.689,2.142-1.875,2.428v0.947
			C50.25,43.71,48.96,45,47.375,45z M31.375,39.25h13.25v2.875c0,0.482,0.393,0.875,0.875,0.875h1.875
			c0.482,0,0.875-0.393,0.875-0.875V39.25h1.375c0.396,0,0.5-0.327,0.5-0.5V28h1.469C51.817,28,52,27.818,52,27.594v-4.688
			c0-0.224-0.183-0.406-0.406-0.406h-1.469v-3.813C50.125,17.148,45.513,15,38,15c-7.512,0-12.125,2.148-12.125,3.688V22.5h-1.469
			C24.182,22.5,24,22.682,24,22.906v4.688C24,27.818,24.182,28,24.406,28h1.469v10.375c0,0.482,0.393,0.875,0.875,0.875h1v2.875
			c0,0.482,0.393,0.875,0.875,0.875H30.5c0.482,0,0.875-0.393,0.875-0.875V39.25z M46.438,38.438c-1.585,0-2.875-1.29-2.875-2.875
			s1.29-2.875,2.875-2.875s2.875,1.29,2.875,2.875S48.022,38.438,46.438,38.438z M46.438,34.688c-0.482,0-0.875,0.393-0.875,0.875
			s0.393,0.875,0.875,0.875s0.875-0.393,0.875-0.875S46.92,34.688,46.438,34.688z M29.563,38.438c-1.585,0-2.875-1.29-2.875-2.875
			s1.29-2.875,2.875-2.875s2.875,1.29,2.875,2.875S31.148,38.438,29.563,38.438z M29.563,34.688c-0.482,0-0.875,0.393-0.875,0.875
			s0.393,0.875,0.875,0.875s0.875-0.393,0.875-0.875S30.045,34.688,29.563,34.688z M45.5,31.875h-15
			c-1.585,0-2.875-1.29-2.875-2.875v-7.5c0-1.585,1.29-2.875,2.875-2.875h15c1.585,0,2.875,1.29,2.875,2.875V29
			C48.375,30.585,47.085,31.875,45.5,31.875z M30.5,20.625c-0.482,0-0.875,0.393-0.875,0.875V29c0,0.482,0.393,0.875,0.875,0.875h15
			c0.482,0,0.875-0.393,0.875-0.875v-7.5c0-0.482-0.393-0.875-0.875-0.875H30.5z"/>
	</g>
	<g>
		<path fill="#FFFFFF" d="M31.497,63.044c-0.176,0.181-0.494,0.271-0.952,0.271h-4.864c-0.47,0-0.79-0.08-0.96-0.24
			c-0.17-0.16-0.256-0.453-0.256-0.88v-8.64c0-0.054,0.021-0.099,0.064-0.136c0.042-0.038,0.091-0.057,0.144-0.057h1.408
			c0.053,0,0.104,0.019,0.152,0.057c0.048,0.037,0.072,0.082,0.072,0.136v3.504h3.6v-3.521c0-0.053,0.024-0.101,0.072-0.144
			c0.048-0.043,0.098-0.064,0.152-0.064h1.408c0.053,0,0.104,0.021,0.152,0.064s0.072,0.091,0.072,0.144v4.192h2.656v-4.992
			c0-0.139,0.069-0.208,0.208-0.208h1.424c0.139,0,0.208,0.069,0.208,0.208v14.769c0,0.139-0.069,0.208-0.208,0.208h-1.424
			c-0.139,0-0.208-0.069-0.208-0.208v-8.24H31.76v2.976C31.76,62.596,31.672,62.862,31.497,63.044z M29.904,58.548h-3.6v2.991
			c0,0.182,0.096,0.272,0.288,0.272h3.024c0.192,0,0.288-0.091,0.288-0.272V58.548z"/>
		<path fill="#FFFFFF" d="M52.625,63.556c0.053,0.054,0.08,0.112,0.08,0.176v1.04c0,0.054-0.027,0.106-0.08,0.16
			c-0.055,0.054-0.107,0.08-0.16,0.08H38.528c-0.064,0-0.117-0.026-0.16-0.08c-0.043-0.054-0.064-0.106-0.064-0.16v-1.04
			c0-0.171,0.074-0.256,0.224-0.256h13.937C52.518,63.476,52.57,63.502,52.625,63.556z M40.256,60.787
			c-0.053,0.021-0.114,0.024-0.184,0.009c-0.069-0.017-0.131-0.067-0.184-0.152l-0.576-0.992c-0.043-0.085-0.045-0.162-0.008-0.231
			s0.094-0.115,0.168-0.137c0.8-0.298,1.501-0.621,2.104-0.968c0.604-0.347,1.115-0.744,1.536-1.192
			c0.421-0.447,0.752-0.96,0.992-1.535c0.24-0.576,0.397-1.243,0.472-2c0.011-0.075,0.035-0.149,0.072-0.225
			c0.037-0.074,0.099-0.106,0.184-0.096l1.393,0.063c0.182,0.011,0.267,0.129,0.256,0.353c-0.011,0.277-0.043,0.539-0.096,0.784
			c0.128,0.512,0.352,1.003,0.672,1.472c0.32,0.47,0.712,0.898,1.176,1.288s0.979,0.733,1.544,1.032s1.152,0.533,1.761,0.704
			c0.074,0.021,0.119,0.066,0.135,0.136c0.017,0.069,0.014,0.131-0.008,0.184l-0.543,1.024c-0.086,0.16-0.214,0.219-0.385,0.176
			c-0.49-0.128-0.984-0.31-1.48-0.544s-0.973-0.509-1.432-0.824c-0.459-0.314-0.88-0.666-1.264-1.056
			c-0.385-0.39-0.709-0.808-0.977-1.256c-0.533,0.938-1.256,1.738-2.168,2.399C42.504,59.865,41.451,60.393,40.256,60.787z"/>
	</g>
</g>
<g id="레이어_2" display="none">
	<path display="inline" fill="#014A95" d="M76,66c0,5.522-4.477,10-10,10H10C4.478,76,0,71.522,0,66V10C0,4.477,4.478,0,10,0h56
		c5.523,0,10,4.477,10,10V66z"/>
	<g display="inline">
		<path fill="#FFFFFF" d="M46.906,45H29.094c-0.634,0-1.179-0.388-1.387-0.987c-0.205-0.591-0.014-1.248,0.477-1.635l1.806-1.425
			c-3.496-0.848-6.114-3.403-6.114-6.328v-15c0-3.904,4.479-6.625,8.5-6.625h11.25c4.528,0,8.5,3.096,8.5,6.625v15
			c0,2.925-2.618,5.48-6.114,6.328l1.806,1.425c0.499,0.395,0.685,1.036,0.477,1.636C48.084,44.613,47.54,45,46.906,45z M30.624,43
			h14.753l-2.217-1.75H32.84L30.624,43z M32.493,39.25h11.014c3.464,0,6.618-2.205,6.618-4.625v-15c0-2.42-3.098-4.625-6.5-4.625
			h-11.25c-3.341,0-6.5,2.248-6.5,4.625v15C25.875,37.045,29.029,39.25,32.493,39.25z M45.5,36.85c-1.743,0-3.162-1.418-3.162-3.162
			s1.419-3.162,3.162-3.162s3.162,1.418,3.162,3.162S47.243,36.85,45.5,36.85z M45.5,32.525c-0.641,0-1.162,0.521-1.162,1.162
			s0.521,1.162,1.162,1.162s1.162-0.521,1.162-1.162S46.141,32.525,45.5,32.525z M30.5,36.85c-1.744,0-3.162-1.418-3.162-3.162
			s1.418-3.162,3.162-3.162s3.162,1.418,3.162,3.162S32.244,36.85,30.5,36.85z M30.5,32.525c-0.641,0-1.162,0.521-1.162,1.162
			s0.521,1.162,1.162,1.162s1.162-0.521,1.162-1.162S31.141,32.525,30.5,32.525z M46.906,30H29.094c-1.327,0-2.406-1.08-2.406-2.406
			v-6.563c0-1.327,1.08-2.406,2.406-2.406h17.813c1.327,0,2.406,1.08,2.406,2.406v6.563C49.313,28.92,48.233,30,46.906,30z
			 M39.612,28h7.294c0.224,0,0.406-0.182,0.406-0.406v-6.563c0-0.224-0.183-0.406-0.406-0.406H39V28H39.612z M29.094,20.625
			c-0.224,0-0.406,0.182-0.406,0.406v6.563c0,0.224,0.182,0.406,0.406,0.406H37v-7.375H29.094z"/>
	</g>
	<g display="inline">
		<path fill="#FFFFFF" d="M17.232,63.859c-0.085,0.054-0.176,0.075-0.272,0.064s-0.171-0.059-0.224-0.145l-0.624-0.832
			c-0.075-0.096-0.088-0.187-0.04-0.271c0.048-0.086,0.109-0.149,0.184-0.192c0.672-0.416,1.312-0.896,1.92-1.439
			c0.608-0.545,1.155-1.115,1.64-1.713c0.485-0.597,0.898-1.208,1.24-1.832c0.341-0.623,0.586-1.224,0.736-1.8
			c0.042-0.181,0.048-0.298,0.016-0.352c-0.032-0.054-0.139-0.08-0.32-0.08H17.36c-0.064,0-0.115-0.024-0.152-0.072
			c-0.038-0.048-0.056-0.104-0.056-0.168v-1.072c0-0.148,0.075-0.224,0.224-0.224h5.216c0.416,0,0.741,0.08,0.976,0.24
			c0.234,0.16,0.352,0.368,0.352,0.624c0,0.139-0.011,0.28-0.032,0.424c-0.022,0.144-0.048,0.274-0.08,0.392
			c-0.15,0.565-0.35,1.134-0.6,1.704c-0.251,0.571-0.558,1.145-0.92,1.721c0.202,0.277,0.437,0.567,0.704,0.871
			c0.267,0.305,0.544,0.601,0.832,0.889c0.288,0.288,0.571,0.558,0.848,0.808c0.277,0.251,0.528,0.456,0.752,0.616
			c0.075,0.054,0.125,0.123,0.152,0.208c0.026,0.086,0.008,0.171-0.056,0.256l-0.688,0.784c-0.139,0.149-0.315,0.16-0.528,0.032
			c-0.192-0.128-0.418-0.307-0.68-0.536c-0.262-0.229-0.531-0.482-0.808-0.76S22.267,61.433,22,61.123
			c-0.267-0.309-0.507-0.602-0.72-0.88c-0.544,0.672-1.152,1.315-1.824,1.929S18.042,63.348,17.232,63.859z M28.64,67.508
			c0,0.139-0.075,0.208-0.224,0.208h-1.408c-0.053,0-0.104-0.02-0.152-0.057s-0.072-0.088-0.072-0.151V52.739
			c0-0.053,0.024-0.101,0.072-0.144s0.099-0.064,0.152-0.064h1.408c0.149,0,0.224,0.069,0.224,0.208V67.508z"/>
		<path fill="#FFFFFF" d="M40.2,57.235c-0.048,0.054-0.104,0.08-0.169,0.08H31.36c-0.064,0-0.125-0.029-0.184-0.088
			s-0.088-0.12-0.088-0.184v-0.977c0-0.053,0.029-0.106,0.088-0.16c0.059-0.053,0.12-0.08,0.184-0.08h8.671
			c0.064,0,0.121,0.024,0.169,0.072s0.071,0.104,0.071,0.168v0.992C40.271,57.123,40.248,57.183,40.2,57.235z M35.808,58.1
			c0.522,0,1.002,0.077,1.44,0.231c0.437,0.155,0.811,0.374,1.12,0.656c0.309,0.283,0.552,0.622,0.728,1.017
			s0.264,0.832,0.264,1.312c0,0.48-0.088,0.923-0.264,1.328s-0.421,0.755-0.736,1.048c-0.314,0.294-0.69,0.525-1.128,0.696
			s-0.917,0.256-1.44,0.256c-0.523,0-1-0.083-1.432-0.248c-0.432-0.165-0.803-0.397-1.112-0.696c-0.31-0.298-0.55-0.65-0.72-1.056
			s-0.256-0.848-0.256-1.328c0-0.469,0.085-0.901,0.256-1.296s0.414-0.733,0.728-1.016c0.314-0.283,0.688-0.505,1.12-0.664
			C34.808,58.18,35.285,58.1,35.808,58.1z M38.152,54.676c-0.048,0.053-0.109,0.08-0.184,0.08h-4.496
			c-0.043,0-0.094-0.021-0.152-0.064c-0.059-0.042-0.088-0.102-0.088-0.176V53.46c0-0.075,0.029-0.134,0.088-0.177
			c0.059-0.042,0.109-0.063,0.152-0.063h4.496c0.064,0,0.123,0.026,0.176,0.08c0.053,0.053,0.08,0.111,0.08,0.176v1.023
			C38.224,54.563,38.2,54.622,38.152,54.676z M35.808,59.556c-0.544,0-0.979,0.168-1.304,0.504s-0.488,0.771-0.488,1.304
			c0,0.523,0.163,0.955,0.488,1.296c0.325,0.342,0.76,0.513,1.304,0.513c0.565,0,1.008-0.171,1.328-0.513
			c0.32-0.341,0.48-0.772,0.48-1.296c0-0.533-0.16-0.968-0.48-1.304C36.816,59.724,36.373,59.556,35.808,59.556z M45.336,60.035
			c-0.048,0.043-0.104,0.064-0.168,0.064h-2.16v7.408c0,0.139-0.069,0.208-0.208,0.208h-1.424c-0.139,0-0.208-0.069-0.208-0.208
			V52.739c0-0.139,0.069-0.208,0.208-0.208H42.8c0.139,0,0.208,0.069,0.208,0.208v5.824h2.16c0.064,0,0.12,0.019,0.168,0.056
			c0.048,0.038,0.072,0.083,0.072,0.137v1.136C45.408,59.945,45.384,59.993,45.336,60.035z"/>
		<path fill="#FFFFFF" d="M47.231,61.235c-0.085-0.021-0.155-0.08-0.208-0.176l-0.4-0.8c-0.053-0.086-0.059-0.165-0.016-0.24
			c0.043-0.074,0.106-0.128,0.191-0.16c0.545-0.202,1.078-0.438,1.601-0.704s1.009-0.546,1.456-0.84
			c0.448-0.293,0.846-0.598,1.191-0.912c0.348-0.314,0.622-0.632,0.824-0.952c0.043-0.074,0.066-0.136,0.072-0.184
			s-0.077-0.072-0.248-0.072h-4.144c-0.075,0-0.131-0.023-0.169-0.072c-0.037-0.048-0.055-0.104-0.055-0.168v-1.008
			c0-0.139,0.08-0.208,0.239-0.208h5.36c0.426,0,0.754,0.059,0.984,0.176c0.229,0.118,0.344,0.315,0.344,0.593
			c0,0.117-0.027,0.253-0.08,0.407c-0.054,0.155-0.112,0.291-0.176,0.408c-0.299,0.587-0.693,1.131-1.185,1.632
			c0.374,0.299,0.79,0.584,1.248,0.856s0.874,0.478,1.248,0.616c0.117,0.043,0.185,0.106,0.2,0.191
			c0.016,0.086-0.003,0.177-0.057,0.272l-0.447,0.768c-0.107,0.182-0.272,0.225-0.496,0.128c-0.192-0.074-0.411-0.181-0.656-0.319
			c-0.246-0.139-0.494-0.291-0.744-0.456s-0.498-0.336-0.744-0.513c-0.245-0.176-0.469-0.349-0.672-0.52
			c-0.607,0.47-1.27,0.894-1.984,1.272c-0.715,0.378-1.471,0.706-2.271,0.983C47.387,61.257,47.316,61.257,47.231,61.235z
			 M52.824,53.899c-0.049,0.059-0.11,0.088-0.185,0.088h-3.744c-0.043,0-0.093-0.023-0.151-0.072
			c-0.06-0.048-0.088-0.108-0.088-0.184v-0.88c0-0.074,0.028-0.134,0.088-0.176c0.059-0.043,0.108-0.064,0.151-0.064h3.744
			c0.063,0,0.122,0.027,0.176,0.08c0.054,0.054,0.08,0.112,0.08,0.176v0.849C52.896,53.779,52.871,53.841,52.824,53.899z
			 M59.063,67.563c-0.048,0.048-0.099,0.072-0.151,0.072h-8.625c-0.416,0-0.698-0.08-0.848-0.24s-0.225-0.411-0.225-0.752v-1.68
			c0-0.342,0.072-0.587,0.217-0.736s0.424-0.224,0.84-0.224h6.464c0.085,0,0.139-0.014,0.16-0.04
			c0.021-0.027,0.032-0.088,0.032-0.185V63.46c0-0.118-0.011-0.187-0.032-0.208s-0.08-0.032-0.176-0.032h-7.312
			c-0.055,0-0.104-0.019-0.152-0.057c-0.049-0.037-0.072-0.082-0.072-0.136v-1.072c0-0.053,0.023-0.101,0.072-0.144
			c0.048-0.043,0.098-0.064,0.152-0.064h8.223c0.438,0,0.729,0.072,0.873,0.217c0.144,0.144,0.216,0.397,0.216,0.76v1.664
			c0,0.373-0.072,0.629-0.216,0.768c-0.145,0.139-0.436,0.208-0.873,0.208h-6.416c-0.085,0-0.139,0.017-0.159,0.048
			c-0.021,0.032-0.032,0.091-0.032,0.177v0.384c0,0.096,0.011,0.151,0.032,0.168c0.021,0.016,0.08,0.023,0.176,0.023h7.664
			c0.063,0,0.12,0.021,0.168,0.064c0.048,0.042,0.072,0.096,0.072,0.16v1.023C59.136,67.465,59.111,67.516,59.063,67.563z
			 M54.463,58.1v-1.104c0-0.053,0.024-0.098,0.072-0.136c0.049-0.037,0.099-0.056,0.152-0.056h2.191v-4.064
			c0-0.139,0.07-0.208,0.209-0.208h1.424c0.139,0,0.208,0.069,0.208,0.208v8.097c0,0.149-0.069,0.224-0.208,0.224h-1.424
			c-0.139,0-0.209-0.069-0.209-0.208v-2.544h-2.191c-0.054,0-0.104-0.021-0.152-0.064C54.487,58.201,54.463,58.153,54.463,58.1z"/>
	</g>
</g>
</svg>
